<svg xmlns="http://www.w3.org/2000/svg" width="880" height="248" viewBox="0 0 880 248" role="img">
  <defs></defs>
  <style>text{font-family:ui-monospace,'SF Mono',SFMono-Regular,Menlo,Consolas,monospace}</style>
  <rect width="880" height="248" fill="#070709"/>
  <rect x="0" y="0" width="284" height="248" rx="10" fill="#0d0d12" stroke="#22222e" stroke-width="1.2"/>
  <text x="16" y="26" font-size="12" fill="#4ade80">&#10095; <tspan fill="#e6edf3" font-weight="600">system_status</tspan></text>
  
  <text x="16" y="64" font-size="10" fill="#8b98a5">brain.exe</text>
  <rect x="118" y="55" width="148" height="10" rx="2" fill="#1a1a24"/>
  <rect x="118" y="55" height="10" rx="2" fill="#4ade80" width="115.4">
    <animate attributeName="width" dur="14s" repeatCount="indefinite" calcMode="spline"
      keySplines="0 0 1 1;0.16 1 0.3 1;0 0 1 1;0 0 1 1" keyTimes="0;0.030;0.120;0.96;1"
      values="0;0;115.4;115.4;0"/>
  </rect>
  <text x="270" y="64" font-size="9.5" fill="#4ade80" text-anchor="end" font-weight="600">78%</text>
  <text x="16" y="94" font-size="10" fill="#8b98a5">motivation.sys</text>
  <rect x="118" y="85" width="148" height="10" rx="2" fill="#1a1a24"/>
  <rect x="118" y="85" height="10" rx="2" fill="#fbbf24" width="62.2">
    <animate attributeName="width" dur="14s" repeatCount="indefinite" calcMode="spline"
      keySplines="0 0 1 1;0.16 1 0.3 1;0 0 1 1;0 0 1 1" keyTimes="0;0.050;0.140;0.96;1"
      values="0;0;62.2;62.2;0"/>
  </rect>
  <text x="270" y="94" font-size="9.5" fill="#fbbf24" text-anchor="end" font-weight="600">42%</text>
  <text x="16" y="124" font-size="10" fill="#8b98a5">social.bat</text>
  <rect x="118" y="115" width="148" height="10" rx="2" fill="#1a1a24"/>
  <rect x="118" y="115" height="10" rx="2" fill="#f472b6" width="22.2">
    <animate attributeName="width" dur="14s" repeatCount="indefinite" calcMode="spline"
      keySplines="0 0 1 1;0.16 1 0.3 1;0 0 1 1;0 0 1 1" keyTimes="0;0.070;0.160;0.96;1"
      values="0;0;22.2;22.2;0"/>
  </rect>
  <text x="270" y="124" font-size="9.5" fill="#f472b6" text-anchor="end" font-weight="600">15%</text>
  <text x="16" y="154" font-size="10" fill="#8b98a5">sleep.dll</text>
  <rect x="118" y="145" width="148" height="10" rx="2" fill="#1a1a24"/>
  <rect x="118" y="145" height="10" rx="2" fill="#a78bfa" width="8.9">
    <animate attributeName="width" dur="14s" repeatCount="indefinite" calcMode="spline"
      keySplines="0 0 1 1;0.16 1 0.3 1;0 0 1 1;0 0 1 1" keyTimes="0;0.090;0.180;0.96;1"
      values="0;0;8.9;8.9;0"/>
  </rect>
  <text x="270" y="154" font-size="9.5" fill="#a78bfa" text-anchor="end" font-weight="600">6%</text>
  <line x1="16" y1="186" x2="268" y2="186" stroke="#1a1a24"/>
  <text x="16" y="210" font-size="10" fill="#8b98a5">coffee.exe</text>
  <text x="268" y="210" font-size="10" fill="#4ade80" text-anchor="end">RUNNING<tspan fill="#4ade80"> &#9679;</tspan><animate attributeName="opacity" dur="2s" repeatCount="indefinite" values="1;0.4;1"/></text>
  <text x="16" y="230" font-size="10" fill="#8b98a5">lofi.stream</text>
  <text x="268" y="230" font-size="10" fill="#4ade80" text-anchor="end">RUNNING &#9835;</text><rect x="296" y="0" width="284" height="248" rx="10" fill="#0d0d12" stroke="#22222e" stroke-width="1.2"/>
  <text x="312" y="26" font-size="12" fill="#4ade80">&#10095; <tspan fill="#e6edf3" font-weight="600">github_stats.exe</tspan></text>
  
  <path transform="translate(312,50) scale(0.75)" fill="#f472b6" d="M12 21s-8-5.3-8-11a5 5 0 0 1 9-3 5 5 0 0 1 9 3c0 5.7-8 11-8 11z">
    <animateTransform attributeName="transform" type="scale" additive="sum" dur="2.2s" repeatCount="indefinite" values="1;1.15;1" calcMode="spline" keySplines="0.4 0 0.2 1;0.4 0 0.2 1"/>
  </path>
  <rect x="376" y="52" width="12" height="14" rx="2" fill="#f472b6"/><rect x="391" y="52" width="12" height="14" rx="2" fill="#f472b6"/><rect x="406" y="52" width="12" height="14" rx="2" fill="#f472b6"/><rect x="421" y="52" width="12" height="14" rx="2" fill="#f472b6"/><rect x="436" y="52" width="12" height="14" rx="2" fill="#f472b6"/><rect x="451" y="52" width="12" height="14" rx="2" fill="#f472b6"/><rect x="466" y="52" width="12" height="14" rx="2" fill="#f472b6"/><rect x="481" y="52" width="12" height="14" rx="2" fill="#f472b6"/><rect x="496" y="52" width="12" height="14" rx="2" fill="#f472b6"/><rect x="511" y="52" width="12" height="14" rx="2" fill="#f472b6"/><rect x="526" y="52" width="12" height="14" rx="2" fill="#f472b6"/><rect x="541" y="52" width="12" height="14" rx="2" fill="#1a1a24" opacity="0.8"/>
  <text x="564" y="84" font-size="9" fill="#525b66" text-anchor="end">93% of the work is invisible</text>
  <text x="312" y="116" font-size="10.5" fill="#8b98a5">contributions (12mo)</text>
  <text x="564" y="116" font-size="10.5" fill="#e6edf3" text-anchor="end" font-weight="600">3,830</text>
  <text x="312" y="142" font-size="10.5" fill="#8b98a5">private, invisible</text>
  <text x="564" y="142" font-size="10.5" fill="#f472b6" text-anchor="end" font-weight="600">3,549</text>
  <text x="312" y="168" font-size="10.5" fill="#8b98a5">repositories</text>
  <text x="564" y="168" font-size="10.5" fill="#e6edf3" text-anchor="end" font-weight="600">77</text>
  <text x="312" y="194" font-size="10.5" fill="#8b98a5">public stars</text>
  <text x="564" y="194" font-size="10.5" fill="#8b98a5" text-anchor="end" font-weight="600">3 (ouch)</text>
  <text x="312" y="228" font-size="9.5" fill="#4ade80">&#10095; stars are a lagging indicator. so is sleep.</text><rect x="608" y="0" width="272" height="248" rx="10" fill="#0d0d12" stroke="#22222e" stroke-width="1.2"/>
  <text x="624" y="26" font-size="12" fill="#4ade80">&#10095; <tspan fill="#e6edf3" font-weight="600">languages.py</tspan></text>
  <circle cx="688" cy="140" r="46" fill="none" stroke="#3178c6" stroke-width="17"
    stroke-dasharray="136.9 152.1" stroke-dashoffset="72.3"/>
  <circle cx="688" cy="140" r="46" fill="none" stroke="#663399" stroke-width="17"
    stroke-dasharray="39.3 249.7" stroke-dashoffset="-66.6"/>
  <circle cx="688" cy="140" r="46" fill="none" stroke="#3572a5" stroke-width="17"
    stroke-dasharray="28.0 261.0" stroke-dashoffset="-107.9"/>
  <circle cx="688" cy="140" r="46" fill="none" stroke="#f1e05a" stroke-width="17"
    stroke-dasharray="20.5 268.5" stroke-dashoffset="-137.9"/>
  <circle cx="688" cy="140" r="46" fill="none" stroke="#e34c26" stroke-width="17"
    stroke-dasharray="16.8 272.3" stroke-dashoffset="-160.5"/>
  <circle cx="688" cy="140" r="46" fill="none" stroke="#6e7681" stroke-width="17"
    stroke-dasharray="35.5 253.5" stroke-dashoffset="-179.2"/>
  <text x="688" y="137" font-size="13" font-weight="700" fill="#e6edf3" text-anchor="middle">77</text>
  <text x="688" y="152" font-size="8" fill="#525b66" text-anchor="middle">repos</text>
  <circle cx="757" cy="84" r="3.6" fill="#3178c6"/>
  <text x="768" y="88" font-size="9.5" fill="#e6edf3">TypeScript</text>
  <text x="866" y="88" font-size="9.5" fill="#525b66" text-anchor="end">48%</text>
  <circle cx="757" cy="106" r="3.6" fill="#663399"/>
  <text x="768" y="110" font-size="9.5" fill="#e6edf3">CSS</text>
  <text x="866" y="110" font-size="9.5" fill="#525b66" text-anchor="end">14%</text>
  <circle cx="757" cy="128" r="3.6" fill="#3572a5"/>
  <text x="768" y="132" font-size="9.5" fill="#e6edf3">Python</text>
  <text x="866" y="132" font-size="9.5" fill="#525b66" text-anchor="end">10%</text>
  <circle cx="757" cy="150" r="3.6" fill="#f1e05a"/>
  <text x="768" y="154" font-size="9.5" fill="#e6edf3">JavaScript</text>
  <text x="866" y="154" font-size="9.5" fill="#525b66" text-anchor="end">8%</text>
  <circle cx="757" cy="172" r="3.6" fill="#e34c26"/>
  <text x="768" y="176" font-size="9.5" fill="#e6edf3">HTML</text>
  <text x="866" y="176" font-size="9.5" fill="#525b66" text-anchor="end">6%</text>
  <circle cx="757" cy="194" r="3.6" fill="#6e7681"/>
  <text x="768" y="198" font-size="9.5" fill="#e6edf3">Other</text>
  <text x="866" y="198" font-size="9.5" fill="#525b66" text-anchor="end">13%</text>
</svg>
